<?xml version="1.0" standalone="no"?>
<!DOCTYPE svg PUBLIC "-//W3C//DTD SVG 20010904//EN"
 "http://www.w3.org/TR/2001/REC-SVG-20010904/DTD/svg10.dtd">
<svg version="1.0" xmlns="http://www.w3.org/2000/svg"
 width="500.000000pt" height="500.000000pt" viewBox="0 0 500.000000 500.000000"
 preserveAspectRatio="xMidYMid meet">

<g transform="translate(0.000000,500.000000) scale(0.100000,-0.100000)"
fill="#000000" stroke="none">
<path d="M3167 3868 c-19 -29 -44 -62 -56 -72 -24 -22 -28 -41 -7 -33 8 3 20
-1 26 -8 7 -8 15 -13 19 -11 4 3 13 1 20 -3 16 -10 4 -61 -16 -61 -8 0 -11 -5
-7 -12 5 -7 2 -9 -8 -5 -9 3 -24 -1 -35 -8 -21 -17 -89 -20 -98 -5 -4 6 -16 8
-27 4 -14 -4 -18 -3 -13 6 4 7 -5 5 -23 -4 -17 -9 -51 -16 -75 -16 -24 0 -71
-10 -106 -21 -52 -18 -69 -29 -94 -65 -17 -24 -43 -48 -58 -53 -18 -6 -31 -19
-35 -36 -4 -18 -12 -25 -28 -24 -66 6 -166 -2 -178 -14 -37 -38 -98 -48 -131
-22 -11 7 -26 11 -34 8 -9 -4 -21 0 -27 8 -6 8 -20 19 -31 25 -11 6 -27 24
-35 40 -9 16 -34 37 -56 48 -21 10 -54 25 -72 34 -26 12 -39 13 -69 4 -22 -7
-39 -8 -43 -2 -8 13 -43 6 -48 -10 -3 -7 3 -17 12 -22 10 -6 15 -16 11 -28 -5
-16 3 -18 82 -22 56 -4 101 -12 123 -23 56 -28 152 -127 109 -113 -6 2 -10 8
-10 13 0 6 -9 13 -20 17 -11 4 -18 12 -15 17 3 5 -4 11 -15 14 -12 3 -18 10
-14 16 4 7 -5 11 -24 11 -21 0 -31 5 -31 15 0 12 -17 15 -102 13 l-103 -2 93
-3 92 -4 -1 -27 c-1 -17 -3 -20 -6 -9 -5 19 -25 24 -20 5 1 -6 -9 -12 -23 -12
-14 0 -24 6 -23 12 2 8 -12 12 -37 12 -27 0 -40 -4 -40 -14 0 -8 -11 -13 -27
-14 -16 0 -37 -1 -48 -2 l-20 -1 20 -8 c18 -7 16 -9 -11 -15 -17 -4 -45 -4
-63 -1 -27 5 -31 3 -29 -12 2 -15 -3 -18 -29 -16 -35 2 -45 -12 -15 -20 16 -4
16 -5 -1 -6 -11 -1 -17 -8 -15 -18 2 -13 -5 -17 -39 -17 -23 -1 -45 -4 -49 -8
-4 -5 7 -8 24 -8 18 0 32 -4 32 -8 0 -5 -20 -8 -45 -7 -25 1 -45 -2 -45 -6 0
-5 9 -9 21 -9 12 0 17 -4 14 -11 -4 -6 -13 -8 -21 -5 -8 3 -14 2 -14 -3 0 -5
8 -11 18 -13 15 -4 17 -13 14 -42 -2 -19 -8 -33 -14 -30 -5 3 -7 8 -4 12 3 3
-2 11 -11 17 -11 8 -18 28 -19 55 -1 34 2 44 17 47 10 3 16 10 13 15 -3 5 3
12 14 15 11 3 18 11 16 18 -3 6 20 35 51 63 l55 51 -43 25 c-88 52 -123 60
-267 60 -129 1 -138 0 -187 -26 -29 -16 -57 -37 -63 -47 -5 -11 -10 -52 -10
-92 0 -69 2 -74 42 -127 49 -64 186 -174 254 -204 34 -15 89 -24 193 -34 81
-7 160 -18 178 -24 26 -10 36 -9 54 4 22 15 22 15 -20 22 -23 4 -44 11 -47 15
-3 5 -15 9 -26 9 -36 0 -107 41 -100 58 4 11 1 14 -10 10 -8 -4 -21 -2 -29 3
-9 5 -10 9 -2 9 6 0 14 8 16 18 4 16 5 16 6 0 0 -10 6 -18 11 -18 6 0 10 6 9
13 -3 28 2 47 13 44 7 -1 12 3 13 10 0 18 15 28 15 10 0 -10 5 -17 10 -17 6 0
10 7 10 15 0 8 6 15 14 15 8 0 14 6 13 13 -1 33 4 47 18 47 8 0 15 7 15 15 0
8 7 15 15 15 8 0 15 7 15 15 0 10 10 15 30 15 20 0 30 5 30 15 0 12 16 15 80
15 65 0 80 -3 80 -15 0 -9 6 -15 13 -14 30 4 47 -2 47 -16 0 -10 10 -15 30
-15 17 0 30 -5 30 -11 0 -5 -4 -8 -9 -4 -5 3 -12 1 -16 -5 -4 -6 6 -10 24 -10
46 0 37 -16 -10 -19 -33 -1 -40 1 -36 13 4 9 -2 16 -15 19 -11 3 -17 10 -14
15 7 12 -78 24 -117 17 -47 -9 -101 -84 -95 -132 6 -45 36 -93 58 -93 11 0 20
-4 20 -10 0 -5 -35 -11 -77 -13 l-78 -3 93 -2 c50 -1 92 -6 92 -11 0 -4 -10
-8 -22 -7 -13 1 -41 -1 -63 -5 -22 -3 29 -6 115 -7 96 0 145 3 128 8 -16 5
-39 7 -53 5 -14 -1 -28 2 -31 6 -3 5 24 9 60 9 37 0 66 4 66 10 0 5 -13 8 -30
6 -16 -2 -30 1 -30 5 0 5 27 9 60 9 47 0 60 3 60 15 0 8 7 15 15 15 8 0 15 7
15 15 0 8 4 15 8 15 4 0 8 9 8 20 0 11 -4 20 -8 20 -15 0 -8 19 10 23 16 4 16
5 0 6 -20 1 -25 21 -6 21 6 0 3 7 -8 16 -19 15 -19 15 2 9 48 -13 114 50 92
89 -7 12 -3 18 17 26 34 13 35 13 35 -4 0 -18 47 -56 70 -56 24 0 54 -36 46
-56 -10 -26 19 -63 44 -57 11 3 20 0 20 -6 0 -6 -8 -11 -17 -12 -16 0 -15 -1
2 -8 19 -8 19 -8 0 -19 -18 -10 -18 -11 -2 -12 9 0 17 -7 17 -15 0 -8 7 -15
15 -15 8 0 15 -7 15 -15 0 -11 12 -15 45 -15 25 0 45 -4 45 -10 0 -5 -7 -7
-15 -4 -8 4 -15 1 -15 -5 0 -7 25 -11 67 -11 77 0 77 -12 0 -17 -28 -1 -81 -5
-117 -8 -36 -3 -91 -6 -123 -6 -39 0 -56 -3 -51 -11 5 -7 -6 -9 -32 -6 -26 3
-50 -1 -74 -14 -37 -19 -70 -24 -70 -9 0 16 -306 4 -361 -14 -63 -21 -92 -57
-86 -105 10 -65 19 -95 38 -115 33 -37 42 -79 25 -113 -15 -28 -14 -31 9 -56
13 -14 32 -26 42 -26 17 -1 17 -2 -1 -15 -11 -8 -30 -15 -41 -15 -12 0 -29 -8
-39 -19 -16 -17 -15 -19 10 -36 20 -13 28 -14 34 -5 4 6 9 10 12 8 12 -9 69
55 75 84 3 18 12 42 19 53 18 29 6 125 -17 125 -5 0 -9 6 -9 13 -1 17 -65 84
-89 92 -12 3 -21 11 -21 16 0 5 -3 8 -7 7 -5 -2 -9 1 -10 7 -3 14 60 6 72 -9
6 -7 15 -11 21 -9 6 2 14 -5 17 -17 3 -11 12 -20 21 -20 9 0 16 -6 16 -14 0
-7 7 -19 15 -26 9 -7 14 -15 11 -17 -2 -2 3 -32 11 -66 16 -68 11 -125 -13
-163 -16 -23 -15 -24 1 -17 14 5 16 3 10 -8 -5 -8 -17 -20 -27 -27 -10 -7 -18
-18 -18 -23 0 -6 -7 -17 -15 -25 -8 -9 -15 -12 -15 -8 0 5 -5 3 -12 -4 -7 -7
-20 -12 -30 -12 -10 0 -18 -5 -18 -11 0 -6 7 -9 15 -6 8 4 17 2 20 -4 4 -5 -1
-12 -9 -15 -9 -3 -16 -12 -16 -20 0 -8 -6 -14 -14 -14 -8 0 -16 -7 -19 -14 -6
-16 16 -12 41 7 18 14 16 -8 -3 -27 -17 -17 -20 -52 -5 -61 11 -7 50 -92 50
-111 0 -16 34 -27 60 -19 13 4 34 -1 56 -14 19 -12 49 -21 65 -21 17 0 40 -5
51 -11 12 -6 42 -12 67 -13 25 -1 68 -8 94 -16 40 -12 51 -12 69 -1 12 8 47
15 78 16 45 2 61 7 84 28 31 29 55 34 73 16 8 -8 16 -2 29 20 14 23 26 31 46
31 25 0 28 -4 28 -32 0 -33 -32 -98 -49 -98 -5 0 -14 7 -21 15 -11 14 -15 12
-30 -12 -23 -39 -46 -56 -75 -55 -18 0 -25 -6 -25 -19 0 -10 -12 -26 -27 -35
-16 -10 -42 -32 -60 -51 -34 -35 -63 -43 -63 -18 0 8 -7 15 -16 15 -8 0 -13
-4 -10 -9 9 -14 -30 -20 -91 -14 -40 4 -54 3 -49 -5 4 -6 13 -9 21 -5 8 3 23
2 33 -2 9 -4 27 -9 40 -11 13 -1 29 -7 35 -12 22 -18 52 -16 100 7 47 23 48
23 62 5 13 -17 14 -17 9 -1 -5 12 -1 17 14 17 12 0 23 9 27 21 5 14 12 18 23
14 9 -3 13 -3 9 1 -9 9 42 44 63 44 12 0 12 -2 1 -9 -9 -6 -10 -11 -2 -15 6
-4 9 -12 5 -17 -3 -5 -10 -7 -15 -4 -5 4 -9 -1 -9 -10 0 -11 -5 -15 -14 -12
-15 6 -69 -47 -58 -57 3 -4 -5 -5 -18 -4 -30 4 -37 -18 -8 -26 l23 -7 -27 -14
c-19 -11 -47 -14 -93 -11 -49 3 -69 0 -80 -11 -8 -8 -15 -18 -15 -22 0 -13 24
-31 41 -31 9 0 23 -9 30 -20 13 -19 16 -19 62 -3 39 13 53 14 75 3 l27 -12
-30 -24 c-16 -13 -39 -27 -50 -30 -19 -7 -45 -28 -45 -37 0 -3 9 -3 21 0 12 4
25 0 29 -8 7 -10 12 -6 21 14 11 25 25 32 58 28 7 -2 10 2 7 7 -11 17 37 40
63 30 16 -5 29 -4 39 4 13 11 14 10 10 -2 -2 -8 -19 -18 -36 -22 -18 -5 -32
-13 -32 -19 0 -6 4 -8 9 -4 5 3 12 1 15 -4 3 -5 -1 -11 -9 -15 -8 -3 -15 -11
-15 -18 0 -10 2 -10 9 0 7 11 9 11 14 -2 4 -9 1 -16 -6 -16 -8 0 -6 -4 3 -10
8 -5 11 -10 5 -10 -5 0 -16 4 -24 9 -17 11 -41 -8 -34 -27 3 -7 1 -12 -3 -10
-13 4 -65 -38 -57 -46 3 -3 193 -6 420 -6 l415 0 -7 33 c-4 17 -14 39 -22 48
-8 9 -23 41 -34 70 -11 30 -35 69 -52 87 -29 30 -32 38 -30 90 3 55 1 60 -65
159 -120 183 -114 171 -96 198 9 14 21 22 26 19 6 -4 5 3 -1 15 -9 16 -8 27 4
50 24 47 15 150 -22 265 -13 40 -17 46 -25 32 -6 -10 -8 -26 -5 -37 3 -12 0
-19 -9 -19 -8 0 -17 -6 -20 -14 -3 -7 -23 -21 -45 -31 -21 -10 -39 -22 -39
-27 0 -5 -4 -7 -9 -3 -6 3 -15 -4 -21 -15 -6 -11 -14 -19 -18 -18 -10 3 -53
-22 -72 -40 -13 -14 -16 -13 -21 14 -4 16 -7 22 -8 15 -1 -10 -4 -12 -11 -5
-16 16 -1 53 21 49 16 -3 17 1 12 28 -3 18 -13 41 -22 51 -12 14 -13 20 -3 23
20 8 14 29 -22 68 -42 46 -39 72 6 49 16 -9 32 -13 35 -10 8 8 -7 26 -23 26
-16 0 -19 16 -4 25 6 3 10 14 10 24 0 10 7 24 15 31 19 15 19 30 2 30 -21 0
-37 46 -30 82 3 18 14 49 24 68 35 71 0 144 -85 177 -26 10 -9 12 114 14 85 1
128 4 105 8 -22 4 -64 6 -92 6 -29 0 -53 3 -53 7 0 5 55 9 123 10 91 2 102 3
45 5 -43 2 -78 8 -78 13 0 6 10 10 23 10 15 0 27 11 38 33 19 37 19 119 1 125
-7 2 -12 8 -12 13 0 5 -10 19 -22 31 -19 19 -34 23 -95 23 -56 0 -72 -3 -68
-13 2 -7 -5 -16 -16 -20 -11 -5 -19 -12 -17 -17 2 -6 -9 -11 -24 -13 -16 -2
-28 1 -28 7 0 6 9 11 21 11 11 0 17 5 14 10 -4 6 -11 8 -16 5 -5 -4 -9 -1 -9
4 0 6 14 11 31 11 24 0 30 4 25 15 -5 14 15 20 52 16 6 -1 12 5 12 14 0 12 15
15 80 15 64 0 80 -3 80 -15 0 -10 10 -15 30 -15 20 0 30 -5 30 -15 0 -8 7 -15
15 -15 8 0 15 -7 15 -15 0 -8 6 -15 13 -15 17 0 38 -48 23 -54 -6 -2 -3 -5 6
-5 9 -1 19 -11 21 -23 l4 -23 8 22 c4 13 11 20 16 18 4 -3 5 -13 2 -22 -5 -12
-2 -15 10 -10 11 4 17 1 17 -8 0 -8 7 -15 15 -15 8 0 15 -4 15 -10 0 -5 -7 -7
-15 -4 -8 4 -15 1 -15 -5 0 -6 12 -11 28 -11 20 0 23 -3 13 -9 -8 -5 -21 -7
-29 -3 -11 4 -14 1 -10 -10 5 -11 -7 -22 -40 -38 -25 -13 -53 -23 -61 -23 -9
0 -19 -4 -22 -9 -3 -5 -47 -12 -97 -15 -68 -4 -89 -9 -82 -17 16 -20 77 -149
90 -191 14 -46 78 -185 85 -185 3 0 4 42 3 93 -1 50 -1 127 0 170 2 75 3 78
30 87 45 16 84 41 132 83 62 54 80 62 195 85 114 23 196 53 241 87 115 88 216
212 255 314 23 61 25 148 5 177 -22 30 -119 59 -196 57 -93 -1 -187 -26 -293
-78 -104 -51 -164 -105 -221 -200 l-36 -60 47 -47 c28 -29 41 -48 33 -49 -8 0
-5 -4 8 -10 13 -5 21 -13 18 -18 -3 -5 3 -11 13 -14 15 -3 18 -13 17 -47 -1
-25 -9 -47 -18 -54 -8 -6 -15 -15 -16 -19 -1 -16 -12 -21 -13 -6 0 8 -2 25 -3
37 -2 16 4 26 17 31 20 7 19 8 -4 16 l-24 8 23 4 c39 8 24 20 -23 18 -25 -1
-45 2 -45 7 0 4 14 8 32 8 17 0 28 3 24 8 -4 4 -26 7 -49 8 -33 0 -41 4 -39
16 1 9 -5 19 -15 21 -17 4 -17 5 0 6 9 0 17 5 17 10 0 5 -15 9 -32 8 -30 -2
-33 1 -32 26 1 15 -3 27 -7 27 -5 0 -9 -7 -9 -15 0 -11 -11 -15 -39 -15 -40 0
-62 14 -39 23 13 5 2 7 -57 11 -18 1 -29 7 -27 14 1 8 -18 12 -67 12 -58 0
-70 -3 -74 -17 -3 -11 -5 -8 -6 9 l-1 27 93 4 92 3 -102 2 -103 2 -1 -32 c-1
-18 -3 -25 -6 -15 -6 21 -23 23 -23 1 0 -8 -5 -12 -10 -9 -6 4 -8 11 -5 16 4
5 1 9 -4 9 -6 0 -11 -7 -11 -15 0 -8 -7 -15 -15 -15 -8 0 -15 -7 -15 -15 0 -8
-8 -15 -17 -16 -16 0 -15 -1 1 -8 19 -7 18 -8 -4 -14 -13 -3 -26 -5 -28 -2 -9
9 77 89 117 108 40 19 64 22 172 22 89 0 131 -4 142 -13 13 -11 16 -10 21 5 4
10 26 33 51 51 57 43 121 153 146 251 22 86 24 112 7 129 -22 22 -37 13 -71
-40z m-57 -253 c0 -8 -7 -15 -15 -15 -16 0 -20 12 -8 23 11 12 23 8 23 -8z
m-1190 -195 c0 -5 -2 -10 -4 -10 -3 0 -8 5 -11 10 -3 6 -1 10 4 10 6 0 11 -4
11 -10z m896 3 c-10 -10 -46 -11 -52 -1 -3 4 9 8 27 8 18 0 29 -3 25 -7z m34
3 c0 -3 -4 -8 -10 -11 -5 -3 -10 -1 -10 4 0 6 5 11 10 11 6 0 10 -2 10 -4z
m-660 -95 c0 -5 -9 -7 -20 -4 -11 3 -20 7 -20 9 0 2 9 4 20 4 11 0 20 -4 20
-9z m410 5 c0 -2 -9 -6 -20 -9 -11 -3 -20 -1 -20 4 0 5 9 9 20 9 11 0 20 -2
20 -4z m-400 -30 c0 -11 -19 -15 -25 -6 -3 5 1 10 9 10 9 0 16 -2 16 -4z m375
-6 c-3 -5 -10 -10 -16 -10 -5 0 -9 5 -9 10 0 6 7 10 16 10 8 0 12 -4 9 -10z
m-360 -30 c8 -13 -5 -13 -25 0 -13 8 -13 10 2 10 9 0 20 -4 23 -10z m345 0
c-20 -13 -33 -13 -25 0 3 6 14 10 23 10 15 0 15 -2 2 -10z m-640 -30 c0 -5 -6
-10 -12 -11 -10 0 -10 -2 0 -6 17 -7 15 -23 -3 -23 -8 0 -15 -6 -15 -12 0 -7
-5 -5 -11 4 -7 12 -6 24 1 38 11 21 40 28 40 10z m953 -12 c3 -12 2 -29 -3
-37 -6 -10 -10 -11 -10 -3 0 6 -7 12 -15 12 -18 0 -20 20 -2 21 10 0 10 2 0 6
-20 7 -15 23 6 23 11 0 21 -9 24 -22z m-733 -20 c0 -4 -16 -8 -35 -8 -19 0
-35 4 -35 10 0 5 16 9 35 8 19 -1 35 -5 35 -10z m400 2 c0 -5 -7 -10 -16 -10
-8 0 -12 5 -9 10 3 6 10 10 16 10 5 0 9 -4 9 -10z m139 -3 c-11 -8 -16 -26
-16 -52 1 -33 -2 -40 -18 -41 -33 -1 -42 10 -15 17 l25 7 -24 1 c-16 1 -21 5
-17 16 3 9 0 15 -9 15 -8 0 -15 4 -15 9 0 5 11 8 25 6 14 -1 28 2 31 6 3 5 -4
9 -15 9 -41 0 -20 17 22 18 35 1 39 -1 26 -11z m-519 -29 c0 -4 -7 -8 -15 -8
-9 0 -12 -6 -9 -15 4 -11 -1 -15 -17 -16 l-24 -1 25 -8 c27 -9 24 -12 -12 -13
-19 -1 -23 4 -24 28 0 17 1 33 3 38 6 10 73 5 73 -5z m-600 -58 c0 -5 -2 -10
-4 -10 -3 0 -8 5 -11 10 -3 6 -1 10 4 10 6 0 11 -4 11 -10z m1660 6 c0 -2 -7
-6 -15 -10 -8 -3 -15 -1 -15 4 0 6 7 10 15 10 8 0 15 -2 15 -4z m-1092 -31
c-9 -9 -68 -12 -68 -4 0 5 17 9 37 9 20 0 34 -2 31 -5z m562 -3 c0 -10 -36 -9
-46 1 -4 4 5 7 19 7 15 0 27 -4 27 -8z m0 -32 c0 -5 -2 -10 -4 -10 -3 0 -8 5
-11 10 -3 6 -1 10 4 10 6 0 11 -4 11 -10z m-710 -28 c0 -10 -36 -9 -46 1 -4 4
5 7 19 7 15 0 27 -4 27 -8z m207 -88 c-3 -3 -12 -4 -19 -1 -8 3 -5 6 6 6 11 1
17 -2 13 -5z m217 0 c9 -3 13 -11 10 -18 -3 -6 2 -2 10 8 9 11 19 17 22 13 4
-4 1 -13 -6 -22 -17 -20 6 -21 26 0 9 8 22 15 30 15 12 0 12 -4 2 -19 -15 -24
-40 -32 -62 -19 -9 5 -16 5 -16 1 0 -4 -10 -8 -23 -8 -18 0 -23 5 -21 25 2 35
2 34 28 24z m133 -41 c-13 -13 -20 -14 -29 -5 -9 9 -8 15 8 26 26 20 44 2 21
-21z m-367 -19 c0 -7 -5 -16 -10 -19 -6 -4 -10 -3 -9 2 1 4 1 17 0 27 -1 20
-1 20 -16 0 -14 -19 -14 -19 -15 2 0 11 3 24 7 27 8 9 43 -22 43 -39z m150
-26 c0 -14 -18 -9 -24 8 -11 28 -6 39 9 20 8 -11 15 -23 15 -28z m-75 23 c3
-5 1 -12 -5 -16 -5 -3 -10 1 -10 9 0 18 6 21 15 7z m360 -38 c-85 -85 -109
-201 -54 -264 13 -15 16 -26 9 -33 -11 -11 -10 -12 -44 38 -19 28 -23 42 -16
52 7 8 8 14 1 18 -6 4 -7 16 -2 29 4 12 6 27 4 33 -8 22 28 83 69 118 49 42
73 48 33 9z m85 -57 c0 -2 -7 -6 -15 -10 -8 -3 -15 -1 -15 4 0 6 7 10 15 10 8
0 15 -2 15 -4z m-110 -256 c0 -5 9 -10 19 -10 10 0 21 -7 25 -15 3 -8 15 -15
28 -15 17 0 19 -3 10 -12 -7 -7 -12 -20 -12 -30 0 -20 -2 -21 -24 -12 -8 3
-12 12 -9 20 3 8 0 14 -6 14 -6 0 -11 6 -11 13 0 7 -9 19 -20 27 -21 15 -26
30 -10 30 6 0 10 -4 10 -10z m10 -54 c0 -4 -6 -3 -13 3 -8 6 -17 8 -20 4 -4
-3 -7 1 -7 10 0 15 3 15 20 5 11 -7 20 -17 20 -22z m120 -6 c0 -5 -4 -10 -10
-10 -5 0 -10 5 -10 10 0 6 5 10 10 10 6 0 10 -4 10 -10z m-21 -41 c-21 -13
-29 -11 -29 9 0 27 10 33 28 16 13 -14 13 -17 1 -25z m46 31 c3 -5 1 -10 -4
-10 -6 0 -11 5 -11 10 0 6 2 10 4 10 3 0 8 -4 11 -10z m-10 -30 c3 -5 1 -10
-4 -10 -6 0 -11 5 -11 10 0 6 2 10 4 10 3 0 8 -4 11 -10z m-805 -174 c0 -3 -4
-8 -10 -11 -5 -3 -10 -1 -10 4 0 6 5 11 10 11 6 0 10 -2 10 -4z m900 -348 c0
-12 -17 -35 -70 -98 l-21 -25 12 25 c20 42 64 109 72 110 4 0 7 -6 7 -12z
m-50 -128 c0 -5 -8 -10 -17 -10 -15 0 -16 2 -3 10 19 12 20 12 20 0z m-32 -68
c2 -13 -3 -25 -12 -28 -9 -3 -16 -16 -16 -29 0 -18 -4 -21 -25 -17 -33 6 -42
22 -16 29 15 4 18 9 12 21 -12 22 7 49 33 47 13 -1 22 -9 24 -23z m-123 -72
c-10 -11 -23 -20 -29 -20 -6 1 0 10 13 20 30 26 39 26 16 0z"/>
<path d="M1624 3825 c-14 -36 17 -220 42 -251 15 -18 15 -18 7 1 -4 11 -8 36
-8 55 0 34 1 35 40 35 26 0 44 -6 52 -16 7 -9 27 -19 44 -21 l32 -5 -44 41
c-24 22 -65 69 -90 105 -49 70 -65 82 -75 56z"/>
<path d="M1785 3440 l-50 -7 58 -1 c37 -1 56 2 52 8 -3 6 -7 9 -8 8 -1 0 -24
-4 -52 -8z"/>
<path d="M2923 3433 c15 -2 39 -2 55 0 15 2 2 4 -28 4 -30 0 -43 -2 -27 -4z"/>
<path d="M1590 3350 c0 -5 5 -10 10 -10 6 0 10 5 10 10 0 6 -4 10 -10 10 -5 0
-10 -4 -10 -10z"/>
<path d="M3140 3350 c0 -5 5 -10 10 -10 6 0 10 5 10 10 0 6 -4 10 -10 10 -5 0
-10 -4 -10 -10z"/>
<path d="M1565 3320 c-3 -5 -1 -10 4 -10 6 0 11 5 11 10 0 6 -2 10 -4 10 -3 0
-8 -4 -11 -10z"/>
<path d="M1590 3320 c0 -5 5 -10 10 -10 6 0 10 5 10 10 0 6 -4 10 -10 10 -5 0
-10 -4 -10 -10z"/>
<path d="M1950 3320 c0 -5 5 -10 10 -10 6 0 10 5 10 10 0 6 -4 10 -10 10 -5 0
-10 -4 -10 -10z"/>
<path d="M2780 3320 c0 -5 5 -10 11 -10 5 0 7 5 4 10 -3 6 -8 10 -11 10 -2 0
-4 -4 -4 -10z"/>
<path d="M3140 3320 c0 -5 5 -10 10 -10 6 0 10 5 10 10 0 6 -4 10 -10 10 -5 0
-10 -4 -10 -10z"/>
<path d="M3170 3320 c0 -5 5 -10 11 -10 5 0 7 5 4 10 -3 6 -8 10 -11 10 -2 0
-4 -4 -4 -10z"/>
<path d="M1620 3110 c0 -5 5 -10 10 -10 6 0 10 5 10 10 0 6 -4 10 -10 10 -5 0
-10 -4 -10 -10z"/>
<path d="M3110 3110 c0 -5 5 -10 10 -10 6 0 10 5 10 10 0 6 -4 10 -10 10 -5 0
-10 -4 -10 -10z"/>
<path d="M1620 3080 c0 -5 5 -10 10 -10 6 0 10 5 10 10 0 6 -4 10 -10 10 -5 0
-10 -4 -10 -10z"/>
<path d="M1655 3080 c-3 -5 -1 -10 4 -10 6 0 11 5 11 10 0 6 -2 10 -4 10 -3 0
-8 -4 -11 -10z"/>
<path d="M3080 3080 c0 -5 5 -10 11 -10 5 0 7 5 4 10 -3 6 -8 10 -11 10 -2 0
-4 -4 -4 -10z"/>
<path d="M3110 3080 c0 -5 5 -10 10 -10 6 0 10 5 10 10 0 6 -4 10 -10 10 -5 0
-10 -4 -10 -10z"/>
<path d="M2143 3043 c9 -2 23 -2 30 0 6 3 -1 5 -18 5 -16 0 -22 -2 -12 -5z"/>
<path d="M2583 3043 c9 -2 23 -2 30 0 6 3 -1 5 -18 5 -16 0 -22 -2 -12 -5z"/>
<path d="M1840 2349 c0 -11 4 -18 10 -14 5 3 7 12 3 20 -7 21 -13 19 -13 -6z"/>
<path d="M1650 2195 c0 -8 25 -41 55 -72 30 -32 55 -60 55 -64 0 -11 58 -31
69 -24 6 3 8 0 5 -8 -3 -8 0 -18 6 -22 18 -11 20 -1 5 28 -8 15 -11 27 -7 27
4 0 1 4 -7 9 -7 5 -9 11 -5 14 5 3 34 -17 64 -44 30 -27 58 -49 62 -49 12 0
-4 39 -23 56 -10 9 -19 27 -19 39 0 17 -10 24 -52 35 -29 8 -61 14 -70 13 -10
0 -18 4 -18 10 0 6 -3 7 -6 4 -4 -4 -20 5 -36 18 -16 14 -36 25 -44 25 -8 0
-14 5 -14 10 0 6 -4 10 -10 10 -5 0 -10 -7 -10 -15z"/>
<path d="M3125 2034 c9 -21 22 -46 30 -54 8 -9 15 -24 15 -33 0 -22 31 -87 42
-87 5 0 16 -16 25 -35 13 -26 23 -35 42 -35 49 -1 93 -33 122 -85 15 -27 35
-54 46 -59 19 -9 43 -49 43 -73 0 -7 5 -13 10 -13 6 0 10 -17 10 -37 0 -21 5
-45 10 -53 7 -11 10 -1 10 35 0 92 -19 168 -65 262 -25 50 -45 98 -45 105 0 7
-4 19 -9 27 -8 12 -12 12 -24 2 -13 -10 -23 -7 -59 19 -24 17 -45 37 -48 44
-9 23 -100 96 -120 96 -10 0 -26 3 -35 6 -15 6 -15 4 0 -32z"/>
<path d="M3295 1990 c-3 -5 -1 -10 4 -10 6 0 11 5 11 10 0 6 -2 10 -4 10 -3 0
-8 -4 -11 -10z"/>
<path d="M2000 1951 c0 -5 5 -13 10 -16 6 -3 10 -2 10 4 0 5 -4 13 -10 16 -5
3 -10 2 -10 -4z"/>
<path d="M2075 1920 c-8 -13 32 -70 50 -70 7 0 22 -3 32 -6 14 -4 12 0 -7 18
-14 14 -30 33 -36 43 -13 23 -30 30 -39 15z"/>
<path d="M2094 1735 c3 -10 9 -44 13 -74 5 -53 3 -62 -46 -155 -28 -54 -51
-102 -51 -107 0 -5 85 -9 191 -9 148 0 190 3 187 13 -3 6 -9 12 -14 12 -21 1
-32 17 -38 59 -8 50 -38 82 -158 171 -48 35 -68 56 -68 72 0 12 -5 25 -12 29
-8 5 -9 2 -4 -11z"/>
</g>
</svg>
